<svg xmlns="http://www.w3.org/2000/svg" xmlns:xlink="http://www.w3.org/1999/xlink" width="537.64001" height="508.91086" viewBox="0 0 537.64001 508.91086"><path d="m0,480.14084c0,.66.53,1.19,1.19,1.19h535.26001c.65997,0,1.19-.53,1.19-1.19s-.53003-1.19-1.19-1.19H1.19c-.66,0-1.19.53-1.19,1.19Z" fill="#2f2e43"/><path d="m160.71001,21.30082l-4.21001,10.53s-3.88,14.74.67,20.62c4.53999,5.87,5.55,50.88.67,54.2-4.88,3.33,61.85001-30.82,61.85001-30.82,0,0-26.05-60.41-26.49001-60.63s-17.50999-5.54-17.50999-5.54l-14.96001,11.64h-.01999Z" fill="#2f2e43"/><polygon points="204.16 73.35082 181.8 80.70082 181.8 48.52082 202.08 48.52082 204.16 73.35082" fill="#f3a3a6"/><path id="uuid-05fbfc1b-ba5d-4586-9f30-eaf7213c9e0f-46-45-45-44-44-74-43" d="m135.81,256.05081c-1.21001,7.37-6.13,12.66-10.98,11.81-4.85-.85001-7.81-7.51999-6.59-14.89999.44-2.95,1.61-5.75,3.41-8.14l5.54-31.17,15.07999,3.16-7.07001,30.39c.92999,2.88,1.14,5.91.61,8.84999h0Z" fill="#f3a3a6"/><rect x="174.81" y="433.64084" width="20.94" height="29.70999" fill="#f3a3a6"/><path d="m154.42,481.33081c-2.2,0-4.16-.04999-5.64-.19-5.56-.51001-10.87-4.62-13.53999-7.01999-1.2-1.07999-1.58-2.79999-.96001-4.28h0c.45-1.06,1.34-1.85999,2.45-2.17001l14.7-4.20001,23.8-16.06.27.48001c.10001.17999,2.44,4.39001,3.22,7.23001.3,1.07999.22,1.98001-.23,2.67999-.31.48001-.75.76001-1.10001.92001.42999.45001,1.78,1.37,5.94,2.03,6.07001.95999,7.35001-5.32999,7.39999-5.59l.03999-.20999.17999-.12c2.89-1.85999,4.67-2.70999,5.28-2.53.38.10999,1.02.31,2.75,17.44.17.54001,1.38,4.48001.56,8.25-.89,4.10001-18.81,2.69-22.39999,2.37-.10001.01001-13.52.97-22.70999.97l-.00999-.00003Z" fill="#2f2e43"/><rect x="243.88798" y="413.59758" width="20.94" height="29.70999" transform="translate(-188.19548 199.5071) rotate(-31.95)" fill="#f3a3a6"/><path d="m231.78,477.26083c-2.46001,0-4.72-.29999-6.33-.57999-1.58-.28-2.82001-1.54001-3.08-3.12h0c-.17999-1.14001.14999-2.29001.92999-3.14001l10.25-11.34,11.7-26.22.48.26001c.17999.10001,4.39,2.42999,6.56,4.42999.83.76001,1.24001,1.57001,1.22,2.39999-.00999.57999-.23,1.04001-.45,1.37.60001.16,2.23.22,6.11-1.42001,5.66-2.39001,3.42001-8.41,3.32001-8.66l-.07999-.20001.09-.19c1.47-3.10999,2.51999-4.76999,3.14001-4.94.39001-.10999,1.03-.28,11.56,13.35001.42999.35999,3.54001,3.07001,4.84,6.70001,1.41,3.95001-14.54001,12.23999-17.75,13.85999-.10001.07999-16.79001,12.20999-23.64999,15.66-2.72,1.37-5.94,1.79001-8.87,1.79001l.00998-.00998Z" fill="#2f2e43"/><path d="m211.17,185.19082h-58.63l-5.32001,54.54001,23.28,201.51999h29.93001l-11.97-116.39001,48.55,105.08002,26.59999-18.62-37.91-98.10001s13.53999-85.45999,2.89999-106.75c-10.64-21.28-17.42999-21.28-17.42999-21.28h.00002Z" fill="#2f2e43"/><polygon points="240.33 188.52083 138.58 188.52083 175.16 68.14082 215.73 68.14082 240.33 188.52083" fill="#6c63ff"/><path d="m181.56,68.15082s-25.27-.67-27.92999,5.99c-2.66,6.65-33.92,164.94-33.92,164.94h20.62l41.24001-170.92999h-.01001Z" fill="#6c63ff"/><circle cx="184.57001" cy="35.14082" r="22.28" fill="#f3a3a6"/><path d="m188.89.53082s26.81999-6.87,35.03,28.82c0,0,.22,9.31,4.88,13.08s3.10001,23.28,3.10001,23.28c0,0,8.87,14.63,1.33,21.28,0,0-3.33,13.52,1.55,21.28s23.28001,50.43999-7.32001,53.04c0,0-15.52-9.37-8.2-37.3s-.89-43.36-.89-43.36c0,0-23.5-8.52-22.17-26.7,1.33-18.18-15.08-36.14-16.17999-35.91s-12.64-6.43-17.74001,13.97l-5.46001-.93S154.53-3.23918,188.89.53082Z" fill="#2f2e43"/><path id="uuid-0abcf40d-6043-4456-8f5e-d5c30197e2bd-47-46-46-45-45-75-44" d="m257.70001,252.48082c1.48999,7.31999-1.23999,14.00999-6.08,14.93999-4.84.92999-9.97-4.26001-11.45-11.58-.63-2.92-.53-5.94.28999-8.81999l-5.89-31.11,15.22-2.41,4.19,30.92c1.89,2.36,3.16,5.12,3.72,8.06h0v.00002Z" fill="#f3a3a6"/><path d="m198,68.29082s22.25999-2.82,24.92,3.83,33.92,164.93999,33.92,164.93999h-20.62s-38.22-168.77-38.22-168.77Z" fill="#6c63ff"/><path id="uuid-0f7b596a-a82a-4a0b-859d-e38649732ee3-48-47-47-46-46-76-45" d="m258.57999,233.97082c-5.39999,5.16-6.99001,12.21001-3.53999,15.73,3.43999,3.53,10.61,2.2,16.02-2.97,2.19-2.03,3.82999-4.57001,4.79999-7.41l22.60001-22.18001-11.12-10.66-21.09,22.99001c-2.89999.86-5.51999,2.39999-7.64999,4.49001h0l-.02002.01001Z" fill="#f3a3a6"/><path d="m267.39001,223.59082l41.70999-53.45999,21.95001-57.45c2.39999-6.27,7.45001-11,13.87-12.97,6.42001-1.97,13.26001-.9,18.76001,2.95,8.98999,6.28,11.85999,18.31,6.67999,27.98l-33.82999,63.13-.04999.10001-57.89001,43.81999-11.20001-14.08v-.02Z" fill="#6c63ff"/><polygon points="365.14001 106.48083 339.12 115.03082 339.12 77.59082 362.72 77.59082 365.14001 106.48083" fill="#f3a3a6"/><circle cx="342.34" cy="62.03082" r="25.92001" fill="#f3a3a6"/><path d="m348.94,64.06082l-3.57001,4.34-6.45999-11.31s-8.25.43-8.25-5.7c0-6.12-7.57001-6.29-7.57001-6.29,0,0-10.72-18.71,11.48001-13.78,0,0,15.39001-10.55,23.04999-1.53,0,0,23.47,11.82,16.75,32.4l-11.16,21.21-2.53-4.8s1.53-20.16-11.73999-14.53999Z" fill="#2f2e43"/><rect x="351.34" y="461.22082" width="20.94" height="29.70999" fill="#f3a3a6"/><path d="m330.94,508.91083c-2.20001,0-4.16-.04999-5.64001-.19-5.56-.51001-10.87-4.62-13.54001-7.01999-1.20001-1.07999-1.57999-2.79999-.95999-4.28h0c.45001-1.06,1.34-1.85999,2.45001-2.17001l14.70001-4.20001,23.79999-16.06.26999.48001c.10001.17999,2.44,4.39001,3.22,7.23001.29999,1.07999.22,1.98001-.23001,2.67999-.31.48001-.75.76001-1.10001.92001.42999.45001,1.78,1.37,5.94,2.03,6.07001.95999,7.35001-5.32999,7.39999-5.59l.04001-.20999.17999-.12c2.89001-1.85999,4.67001-2.70999,5.28-2.53.38.10999,1.01999.31,2.75,17.44.17001.54001,1.38,4.48001.56,8.25-.89001,4.10001-18.81,2.69-22.39999,2.37-.10001.01001-13.51999.97-22.70999.97l-.00998-.00003Z" fill="#2f2e43"/><rect x="407.55729" y="419.95566" width="20.94" height="29.70999" transform="translate(-181.22702 366.24392) rotate(-39.6)" fill="#f3a3a6"/><path d="m415.19,479.74081c-1.70001,1.39999-3.23999,2.60999-4.45999,3.45001-4.60999,3.14999-11.32001,3.37-14.89999,3.22-1.60999-.07001-3-1.14999-3.47-2.69h0c-.32999-1.10999-.14999-2.29001.5-3.23999l8.64999-12.60999,8.10001-27.54001.51001.20001c.19.07001,4.67001,1.82999,7.09,3.51999.92001.64001,1.42999,1.39001,1.53,2.20999.07001.57001-.09,1.07001-.26001,1.42001.62.07001,2.23999-.07999,5.87-2.22,5.29001-3.12,2.26999-8.79001,2.13-9.03l-.10001-.19.06-.20001c1.04001-3.28,1.87-5.06,2.45999-5.31.37-.16.98001-.42001,13.23001,11.69.48001.29999,3.92001,2.57001,5.69,6,1.92999,3.73001-12.78,14.07001-15.75,16.10001-.07001.07001-9.79999,9.35999-16.88,15.22v-.00003Z" fill="#2f2e43"/><path d="m316.70999,232.11082h71.82999l-15.95999,237.42998h-23.94l-31.92001-237.42999-.00998.00002Z" fill="#2f2e43"/><polygon points="331.34 245.19082 316.70999 232.11082 324.01999 362.69082 405.82999 440.50082 426.23001 423.65082 378.56 361.80081 331.34 245.19082" fill="#2f2e43"/><path d="m331.34,92.44082l35.47-5.76,11.01999,19.26c14,24.48,19.70999,52.84,16.28,80.84l-5.57001,45.33h-71.83002l14.63-139.67h.00003Z" fill="#6c63ff"/><path id="uuid-b3acfcbb-0728-463d-abe9-71d573e8fb8c-49-48-48-47-47-77-46" d="m258.87,243.34082c-5.96001,4.50999-8.35001,11.32001-5.34,15.22s10.29001,3.41,16.25-1.10001c2.41-1.77,4.34-4.10001,5.62-6.81l25-19.42-9.82001-11.88-23.61002,20.41c-2.98001.52-5.76001,1.75-8.12,3.58h.02002Z" fill="#f3a3a6"/><path d="m268.82001,234.04082l47.60001-48.28999,28.42999-54.53c3.10001-5.95,8.67001-10.07,15.28-11.29,6.60001-1.22,13.26999.64,18.29999,5.09,8.20999,7.28,9.67001,19.56,3.41,28.56l-40.88998,58.8-.06.09-62.56,36.84-9.5-15.28-.01001.00999Z" fill="#6c63ff"/></svg>