<svg xmlns="http://www.w3.org/2000/svg" data-name="Layer 1" width="717.67004" height="595.3292" viewBox="0 0 717.67004 595.3292" xmlns:xlink="http://www.w3.org/1999/xlink"><rect x="156.85476" width="326" height="594" rx="58.72835" fill="#3f3d56"/><path d="M718.5202,211.06773v476.54a53.29169,53.29169,0,0,1-53.23,53.23h-208.54a53.29169,53.29169,0,0,1-53.23-53.23v-476.54a53.29173,53.29173,0,0,1,53.23-53.23h27.27v9.42a16.08092,16.08092,0,0,0,16.08,16.08h121.84a16.08092,16.08092,0,0,0,16.08-16.08v-9.42h27.27A53.29174,53.29174,0,0,1,718.5202,211.06773Z" transform="translate(-241.16498 -152.3354)" fill="#fff"/><path d="M396.51974,272.83541a4.0046,4.0046,0,0,1-4-4v-8a4,4,0,0,1,8,0v8A4.00458,4.00458,0,0,1,396.51974,272.83541Z" transform="translate(-241.16498 -152.3354)" fill="#3f3d56"/><path d="M396.51974,313.85689a4.00458,4.00458,0,0,1-4-4V287.83541a4,4,0,0,1,8,0v22.02148A4.00458,4.00458,0,0,1,396.51974,313.85689Z" transform="translate(-241.16498 -152.3354)" fill="#3f3d56"/><path d="M396.51974,346.83541a4.00458,4.00458,0,0,1-4-4V320.81392a4,4,0,0,1,8,0v22.02149A4.00459,4.00459,0,0,1,396.51974,346.83541Z" transform="translate(-241.16498 -152.3354)" fill="#3f3d56"/><path d="M724.51974,328.8354a4.00458,4.00458,0,0,1-4-4V271.102a4,4,0,0,1,8,0v53.7334A4.00459,4.00459,0,0,1,724.51974,328.8354Z" transform="translate(-241.16498 -152.3354)" fill="#3f3d56"/><path d="M569.61227,170.6812h-31a2.5,2.5,0,0,1,0-5h31a2.5,2.5,0,0,1,0,5Z" transform="translate(-241.16498 -152.3354)" fill="#fff"/><circle cx="344.44729" cy="15.8458" r="2" fill="#fff"/><path d="M472.10563,181.40845h-27a5,5,0,0,1,0-10h27a5,5,0,0,1,0,10Z" transform="translate(-241.16498 -152.3354)" fill="#e6e6e6"/><path d="M574.5202,391.03047h-27a5,5,0,0,1,0-10h27a5,5,0,0,1,0,10Z" transform="translate(-241.16498 -152.3354)" fill="#e6e6e6"/><circle cx="407.94066" cy="24.07305" r="4.5" fill="#e6e6e6"/><circle cx="421.94066" cy="24.07305" r="4.5" fill="#e6e6e6"/><circle cx="435.94066" cy="24.07305" r="4.5" fill="#e6e6e6"/><path d="M647.32261,461.03047H460.59019a18.1543,18.1543,0,0,1-18.13379-18.13379V424.16426a18.1543,18.1543,0,0,1,18.13379-18.13379H647.32261a18.15431,18.15431,0,0,1,18.13379,18.13379v18.73242A18.1543,18.1543,0,0,1,647.32261,461.03047Zm-186.73242-53a16.15232,16.15232,0,0,0-16.13379,16.13379v18.73242a16.15232,16.15232,0,0,0,16.13379,16.13379H647.32261a16.152,16.152,0,0,0,16.13379-16.13379V424.16426a16.152,16.152,0,0,0-16.13379-16.13379Z" transform="translate(-241.16498 -152.3354)" fill="#e6e6e6"/><path d="M574.5202,530.03047h-27a5,5,0,0,1,0-10h27a5,5,0,0,1,0,10Z" transform="translate(-241.16498 -152.3354)" fill="#e6e6e6"/><path d="M580.7229,675.03047H541.3175a7.2973,7.2973,0,1,1,0-14.59459h39.4054a7.29729,7.29729,0,1,1,0,14.59459Z" transform="translate(-241.16498 -152.3354)" fill="#f50057"/><path d="M647.32261,600.03047H460.59019a18.1543,18.1543,0,0,1-18.13379-18.13379V563.16426a18.1543,18.1543,0,0,1,18.13379-18.13379H647.32261a18.15431,18.15431,0,0,1,18.13379,18.13379v18.73242A18.1543,18.1543,0,0,1,647.32261,600.03047Zm-186.73242-53a16.15232,16.15232,0,0,0-16.13379,16.13379v18.73242a16.15232,16.15232,0,0,0,16.13379,16.13379H647.32261a16.152,16.152,0,0,0,16.13379-16.13379V563.16426a16.152,16.152,0,0,0-16.13379-16.13379Z" transform="translate(-241.16498 -152.3354)" fill="#e6e6e6"/><rect x="198.94049" y="193.50005" width="241.5" height="2" fill="#e6e6e6"/><path d="M675.325,425.20043a6.48015,6.48015,0,0,0,7.14289,5.53822,6.21585,6.21585,0,0,0,1.005-.21495l13.43482,18.18216,11.62453-3.571-21.09692-22.91754a6.46218,6.46218,0,0,0-6.75253-4.07985,6.18429,6.18429,0,0,0-5.38088,6.89471Q675.31234,425.11645,675.325,425.20043Z" transform="translate(-241.16498 -152.3354)" fill="#ffb6b6"/><path d="M844.38642,552.853a6.48016,6.48016,0,0,1-.17263-9.03676,6.217,6.217,0,0,1,.77288-.6774l-6.55137-21.63712,9.80949-7.18718,5.77,30.61047a6.4622,6.4622,0,0,1-.7635,7.85232,6.18429,6.18429,0,0,1-8.74374.19474Q844.44617,552.91337,844.38642,552.853Z" transform="translate(-241.16498 -152.3354)" fill="#ffb6b6"/><polygon points="547.623 582.429 537.722 582.428 533.012 544.238 547.625 544.239 547.623 582.429" fill="#ffb6b6"/><path d="M789.13636,745.09346l-30.447-.00116v-.385a11.85147,11.85147,0,0,1,11.85083-11.85064h.00073l5.56152-4.21924,10.37659,4.21991,2.65783.00006Z" transform="translate(-241.16498 -152.3354)" fill="#2f2e41"/><polygon points="590.623 582.429 580.722 582.428 576.012 544.238 590.625 544.239 590.623 582.429" fill="#ffb6b6"/><path d="M832.13636,745.09346l-30.447-.00116v-.385a11.85147,11.85147,0,0,1,11.85083-11.85064h.00073l5.56152-4.21924,10.37659,4.21991,2.65783.00006Z" transform="translate(-241.16498 -152.3354)" fill="#2f2e41"/><path d="M759.4564,529.48827s-11.27034,15.7116-3.13517,42.8558,3.56824,51.41192,5.8517,56.27806,6.88025,9.48743,3.08186,13.17679-5.79839,6.68935-2.79839,7.68935,13,71,13,71l17,1s6.15844-32.51694-.42078-58.75847c0,0,1.44431-19.05013-1.56745-24.64583s-2.42122-.54845-2.2165-7.57207a61.67021,61.67021,0,0,1,2.20473-15.02363c1-4,1.57922-44.315,1.57922-44.315L814.136,620.97167a13.32144,13.32144,0,0,1,.7298,5.7607c-.40941,2.7559-.413,6.874.0888,8.315s1.06061,1.744.7812,4.59245-.27941,78.39069-.27941,78.39069h19l9-75.5422a24.75172,24.75172,0,0,1-4-6c-2-4-2.07788-4.22047-1.03894-7.11023s1.03894-8.51969,1.03894-10.20473,1.03892-78.18208-11.98054-89.43356S759.4564,529.48827,759.4564,529.48827Z" transform="translate(-241.16498 -152.3354)" fill="#2f2e41"/><path d="M817.80285,409.40283l-18.98059-4.91845-8.86-12.22L768.921,394.85109l-4.47906,16.66817-14.97969,8.6951s8.27947,87.57155,6.31006,92.38-9.03083,4.41151-3.00012,10.61,6.82952,3.7018,5.43011,10.45014-11.60059,13.89007,0,13.8192,81.60059-1.07086,79.60059-9.07086-1.9685-5.96851-4.98425-10.98425-5.0454-2.21287-4.03057-9.61431.01482-12.40144.01482-16.40144-3.35059-40.34856-3.35059-40.34856Z" transform="translate(-241.16498 -152.3354)" fill="#3f3d56"/><path d="M758.58238,418.5344s-18.77953-2.13157-22.77953,6.86843-14.0806,27.74016-14.0806,27.74016-7.85936-8.22205-8.62-11.94858c-.64582-3.16394-1.00071,2.12112-6.28-3.6-2.36586-2.5639-.36586-2.5639-3.36586-3.5639l-6-2-10,9s-.19557,10.874,5,11-2-2,5,5c3.61437,3.61438.29921,3.01545,6.32283,6.6939s5.34391,3.66271,7.18377,5.67058,11.71387,3.46944,11.71387,3.46944l44.22047-24.47Z" transform="translate(-241.16498 -152.3354)" fill="#3f3d56"/><path d="M807.9338,413.18615s8.05307-11.79857,21.81685,3.52985,24.05512,85.30479,23.40945,87.8166-4.27535,1.07087.03949,5.29134,7.31484,1.22047,4.31484,4.22047-9.26124,5.82315-4.13062,6.91158-14.82736,7.07958-14.82736,7.07958-2.90827-1.06261-3.03108-8.06957c-.069-3.93553,1.931-5.93553-1.069-6.93553s.689-7.67794.37354-8.832-19.31551-52.15406-19.31551-52.15406Z" transform="translate(-241.16498 -152.3354)" fill="#3f3d56"/><circle cx="535.11819" cy="214.78169" r="23.0557" fill="#ffb6b6"/><path d="M791.4564,385.03047c-5.45-4.26,2-23-7-19,0,0-11-7-13.21-2.4-2.559,5.32635-11.66,2.91-17.25,1.03a13.58179,13.58179,0,0,0,.93-3.19,25.53831,25.53831,0,0,1-3.27,2.19,6.63788,6.63788,0,0,1-2-1.64,4.06186,4.06186,0,0,1-.51-4.61c.93-1.43,2.85-1.87,3.98-3.14a1.36734,1.36734,0,0,0,.18768-1.25624,3.59356,3.59356,0,0,1,3.21981-4.50037,1.29233,1.29233,0,0,0,.61253-.1334,14.01055,14.01055,0,0,0,2.61-2.06,25.90175,25.90175,0,0,1-3.94-.11c-.27-.03-.54-.06-.81-.1a8.85621,8.85621,0,0,1,5.47-4.97,26.01548,26.01548,0,0,1,7.92-1.11c1.55-.05,3.1-.1,4.64-.15a46.39813,46.39813,0,0,1,9.79.34,23.90839,23.90839,0,0,1,16.57,11.84C802.78641,358.21046,806.4564,378.03047,791.4564,385.03047Z" transform="translate(-241.16498 -152.3354)" fill="#2f2e41"/><path d="M732.62278,493.59458,613.77313,535.615a11.7646,11.7646,0,0,1-14.99636-7.16205L578.36008,470.7068a11.76458,11.76458,0,0,1,7.162-14.99636L704.37177,413.69a11.76459,11.76459,0,0,1,14.99636,7.162l20.41667,57.74616A11.7646,11.7646,0,0,1,732.62278,493.59458Z" transform="translate(-241.16498 -152.3354)" fill="#f50057"/><path d="M606.35628,469.1179c-7.87795,5.18373-17.9746,1.28255-21.50572-4.39981l.563-.31989C592.12029,460.21775,602.08034,462.54687,606.35628,469.1179Z" transform="translate(-241.16498 -152.3354)" fill="#fff"/><path d="M705.07828,483.825a6.44745,6.44745,0,0,1-5.16088-.093c-3.38219-1.68048-4.96928-6.66335-6.24453-10.66725-.37106-1.16476-.72151-2.26506-1.07836-3.16429l-.00512-.01368a7.17056,7.17056,0,0,1,4.34526-9.10434l15.98619-5.65207a6.44312,6.44312,0,0,1,5.15532.09236c3.38135,1.67839,4.96976,6.65948,6.24614,10.66185.37217,1.16713.7237,2.26964,1.08187,3.17025a7.175,7.175,0,0,1-4.34353,9.11939Z" transform="translate(-241.16498 -152.3354)" fill="#fff"/><path d="M607.11876,499.72745a1.68835,1.68835,0,0,1-1.71678-.28508,2.11184,2.11184,0,0,1-.69086-1.95208,1.6943,1.6943,0,0,1,1.18988-1.31355l6.08417-2.15112a1.69732,1.69732,0,0,1,1.74984.27534,2.1118,2.1118,0,0,1,.69,1.95208,1.70163,1.70163,0,0,1-1.19014,1.31174l-6.08428,2.15116Z" transform="translate(-241.16498 -152.3354)" fill="#fff"/><path d="M603.88735,513.53263a2.99213,2.99213,0,0,1-2.889-1.07961,3.74264,3.74264,0,0,1-.53781-3.63014,3.00267,3.00267,0,0,1,2.5162-1.88l22.66274-7.60517a3.008,3.008,0,0,1,2.94985,1.07391,3.74258,3.74258,0,0,1,.53628,3.62984,3.01564,3.01564,0,0,1-2.516,1.87679l-22.66294,7.60521Z" transform="translate(-241.16498 -152.3354)" fill="#fff"/><rect x="579.06213" y="458.25823" width="149.13496" height="0.7122" transform="translate(-356.656 91.77431) rotate(-19.47156)" fill="#fff"/><circle cx="460.29142" cy="315.69507" r="4" fill="#f50057"/><circle cx="473.29142" cy="317.69507" r="3" fill="#f50057"/><path d="M500.03641,293.00044c0,9.29-7.42,14.63-18.22,14.63a36.01559,36.01559,0,0,1-14.16-2.95v-12.35c4.36,2.38,9.86,4.15,14.16,4.15,2.91,0,4.99-.78,4.99-3.17,0-6.17-19.72-3.89-19.72-18.21,0-9.19,7-14.69,17.54-14.69a34.11727,34.11727,0,0,1,12.87,2.38995v12.19a28.9459,28.9459,0,0,0-12.87-3.31994c-2.75,0-4.41.78-4.41,2.8C480.21641,280.29048,499.98643,277.54048,500.03641,293.00044Z" transform="translate(-241.16498 -152.3354)" fill="#635bff" fill-rule="evenodd"/><path d="M515.24638,261.29048h9.86v11.06h-9.86v18.42c0,7.68,8.2,5.29,9.86,4.62v10.53c-1.72.93994-4.83,1.71-9.09,1.71a13.03357,13.03357,0,0,1-13.44-13.33l.05-41.57,12.67-2.7Z" transform="translate(-241.16498 -152.3354)" fill="#635bff" fill-rule="evenodd"/><path d="M552.03648,261.29048v11.94c-1.61011-.57-6.8-1.3-9.86011,2.7v30.77h-12.97v-45.41h11.21l.83,3.84C544.30637,259.53047,550.37632,260.67049,552.03648,261.29048Z" transform="translate(-241.16498 -152.3354)" fill="#635bff" fill-rule="evenodd"/><polygon points="314.041 94.425 327.061 91.675 327.061 102.205 314.041 105.015 314.041 94.425" fill="#635bff" fill-rule="evenodd"/><rect x="314.04142" y="108.95508" width="13.02002" height="45.40997" fill="#635bff"/><path d="M595.31638,260.41048a14.67964,14.67964,0,0,0-10.17,4.05l-.66992-3.22h-11.42v60.51l12.9701-2.75.04992-14.69a14.62117,14.62117,0,0,0,9.19007,3.27c9.28991,0,17.75-7.47,17.75-23.92C612.96641,268.61043,604.39634,260.41048,595.31638,260.41048Zm-3.11,35.76a7.78,7.78,0,0,1-6.13-2.44l-.04992-19.26a7.74588,7.74588,0,0,1,6.17993-2.54c4.72,0,7.99,5.29,7.99,12.09C600.19639,290.98048,596.97642,296.17049,592.2064,296.17049Z" transform="translate(-241.16498 -152.3354)" fill="#635bff" fill-rule="evenodd"/><path d="M653.90635,284.18043c0-13.29-6.42993-23.76995-18.73-23.76995-12.35,0-19.83,10.48-19.83,23.66,0,15.62,8.83,23.51,21.49,23.51a28.92929,28.92929,0,0,0,14.37-3.37v-10.38a27.56047,27.56047,0,0,1-12.71,2.85c-5.03,0-9.5-1.75994-10.07007-7.88h25.38C653.80637,288.12044,653.90635,285.42049,653.90635,284.18043Zm-25.62988-4.93c0-5.87,3.57995-8.31,6.84985-8.31,3.16016,0,6.54,2.44,6.54,8.31Z" transform="translate(-241.16498 -152.3354)" fill="#635bff" fill-rule="evenodd"/><path d="M241.165,746.4746a1.18647,1.18647,0,0,0,1.19006,1.19h715.29a1.19,1.19,0,0,0,0-2.38H242.355A1.18651,1.18651,0,0,0,241.165,746.4746Z" transform="translate(-241.16498 -152.3354)" fill="#ccc"/><path d="M489.81939,720.68835a2.80741,2.80741,0,0,1-2.03464-4.86593l.19237-.76476q-.038-.09189-.07644-.18358a7.53909,7.53909,0,0,0-13.90673.05167c-2.27452,5.4781-5.17037,10.96553-5.8834,16.75771a22.30331,22.30331,0,0,0,.39152,7.6706,89.4194,89.4194,0,0,1-8.13413-37.13874,86.307,86.307,0,0,1,.53535-9.62829q.44349-3.93128,1.23055-7.80653A90.45569,90.45569,0,0,1,480.072,646.44319a24.07272,24.07272,0,0,0,10.01181-10.38734,18.36283,18.36283,0,0,0,1.67-5.01791c-.48739.06393-1.83779-7.35909-1.47018-7.81452-.67924-1.03071-1.895-1.54307-2.6368-2.54885-3.68944-5.0021-8.77254-4.12872-11.42613,2.66876-5.6687,2.861-5.72357,7.60577-2.24528,12.16915,2.2129,2.90325,2.51695,6.83168,4.45862,9.93985-.1998.25571-.40756.50344-.6073.75916a91.04,91.04,0,0,0-9.50223,15.05378,37.84589,37.84589,0,0,0-2.25945-17.5787c-2.16268-5.21725-6.21632-9.61123-9.786-14.12153-4.2878-5.41757-13.08033-3.05324-13.83575,3.81438q-.011.09975-.02141.19942.79532.44867,1.55706.95247a3.808,3.808,0,0,1-1.53533,6.92992l-.07765.012a37.88983,37.88983,0,0,0,.99876,5.66515c-4.57949,17.71009,5.30731,24.16047,19.42432,24.45023.31164.15979.61531.31958.92695.47144a92.9244,92.9244,0,0,0-5.00193,23.53931,88.13549,88.13549,0,0,0,.06392,14.23066l-.024-.16778a23.28923,23.28923,0,0,0-7.95036-13.44763c-6.11821-5.0259-14.76211-6.87666-21.36259-10.9165a4.37073,4.37073,0,0,0-6.69422,4.252q.01328.08818.027.17642a25.5806,25.5806,0,0,1,2.86848,1.38225q.79533.44877,1.55706.95247a3.8081,3.8081,0,0,1-1.53533,6.93l-.07772.01193c-.05591.008-.10387.016-.15972.024a37.92284,37.92284,0,0,0,6.97545,10.92265c2.86344,15.46021,15.162,16.927,28.31753,12.42488h.008a92.89781,92.89781,0,0,0,6.24043,18.21781h22.2928c.08-.24769.15185-.50341.22379-.75113a25.32943,25.32943,0,0,1-6.16855-.36745c1.654-2.02958,3.308-4.07513,4.962-6.10463a1.384,1.384,0,0,0,.10388-.11987c.839-1.03867,1.68595-2.06946,2.52491-3.10816l.00045-.00127a37.1011,37.1011,0,0,0-1.08711-9.45126Z" transform="translate(-241.16498 -152.3354)" fill="yellow"/></svg>